<svg class="marks" width="810" height="351" viewBox="0 0 810 351" version="1.1" xmlns="http://www.w3.org/2000/svg" xmlns:xlink="http://www.w3.org/1999/xlink"><rect width="810" height="351" style="fill: white;"></rect><g transform="translate(52,11)"><g class="mark-group role-frame root"><g transform="translate(0,0)"><path class="background" d="M0.5,0.5h600v300h-600Z" style="fill: none; stroke: #ddd;"></path><g><g class="mark-group role-axis"><g transform="translate(0.5,300.5)"><path class="background" d="M0,0h0v0h0Z" style="pointer-events: none; fill: none;"></path><g><g class="mark-rule role-axis-grid" style="pointer-events: none;"><line transform="translate(13,-300)" x2="0" y2="300" style="fill: none; stroke: #ddd; stroke-width: 1; opacity: 1;"></line><line transform="translate(40,-300)" x2="0" y2="300" style="fill: none; stroke: #ddd; stroke-width: 1; opacity: 1;"></line><line transform="translate(67,-300)" x2="0" y2="300" style="fill: none; stroke: #ddd; stroke-width: 1; opacity: 1;"></line><line transform="translate(93,-300)" x2="0" y2="300" style="fill: none; stroke: #ddd; stroke-width: 1; opacity: 1;"></line><line transform="translate(120,-300)" x2="0" y2="300" style="fill: none; stroke: #ddd; stroke-width: 1; opacity: 1;"></line><line transform="translate(147,-300)" x2="0" y2="300" style="fill: none; stroke: #ddd; stroke-width: 1; opacity: 1;"></line><line transform="translate(173,-300)" x2="0" y2="300" style="fill: none; stroke: #ddd; stroke-width: 1; opacity: 1;"></line><line transform="translate(200,-300)" x2="0" y2="300" style="fill: none; stroke: #ddd; stroke-width: 1; opacity: 1;"></line><line transform="translate(227,-300)" x2="0" y2="300" style="fill: none; stroke: #ddd; stroke-width: 1; opacity: 1;"></line><line transform="translate(253,-300)" x2="0" y2="300" style="fill: none; stroke: #ddd; stroke-width: 1; opacity: 1;"></line><line transform="translate(280,-300)" x2="0" y2="300" style="fill: none; stroke: #ddd; stroke-width: 1; opacity: 1;"></line><line transform="translate(307,-300)" x2="0" y2="300" style="fill: none; stroke: #ddd; stroke-width: 1; opacity: 1;"></line><line transform="translate(333,-300)" x2="0" y2="300" style="fill: none; stroke: #ddd; stroke-width: 1; opacity: 1;"></line><line transform="translate(360,-300)" x2="0" y2="300" style="fill: none; stroke: #ddd; stroke-width: 1; opacity: 1;"></line><line transform="translate(387,-300)" x2="0" y2="300" style="fill: none; stroke: #ddd; stroke-width: 1; opacity: 1;"></line><line transform="translate(413,-300)" x2="0" y2="300" style="fill: none; stroke: #ddd; stroke-width: 1; opacity: 1;"></line><line transform="translate(440,-300)" x2="0" y2="300" style="fill: none; stroke: #ddd; stroke-width: 1; opacity: 1;"></line><line transform="translate(467,-300)" x2="0" y2="300" style="fill: none; stroke: #ddd; stroke-width: 1; opacity: 1;"></line><line transform="translate(493,-300)" x2="0" y2="300" style="fill: none; stroke: #ddd; stroke-width: 1; opacity: 1;"></line><line transform="translate(520,-300)" x2="0" y2="300" style="fill: none; stroke: #ddd; stroke-width: 1; opacity: 1;"></line><line transform="translate(547,-300)" x2="0" y2="300" style="fill: none; stroke: #ddd; stroke-width: 1; opacity: 1;"></line><line transform="translate(573,-300)" x2="0" y2="300" style="fill: none; stroke: #ddd; stroke-width: 1; opacity: 1;"></line><line transform="translate(600,-300)" x2="0" y2="300" style="fill: none; stroke: #ddd; stroke-width: 1; opacity: 1;"></line></g></g></g></g><g class="mark-group role-axis"><g transform="translate(0.5,0.5)"><path class="background" d="M0,0h0v0h0Z" style="pointer-events: none; fill: none;"></path><g><g class="mark-rule role-axis-grid" style="pointer-events: none;"><line transform="translate(0,300)" x2="600" y2="0" style="fill: none; stroke: #ddd; stroke-width: 1; opacity: 1;"></line><line transform="translate(0,267)" x2="600" y2="0" style="fill: none; stroke: #ddd; stroke-width: 1; opacity: 1;"></line><line transform="translate(0,233)" x2="600" y2="0" style="fill: none; stroke: #ddd; stroke-width: 1; opacity: 1;"></line><line transform="translate(0,200)" x2="600" y2="0" style="fill: none; stroke: #ddd; stroke-width: 1; opacity: 1;"></line><line transform="translate(0,167)" x2="600" y2="0" style="fill: none; stroke: #ddd; stroke-width: 1; opacity: 1;"></line><line transform="translate(0,133)" x2="600" y2="0" style="fill: none; stroke: #ddd; stroke-width: 1; opacity: 1;"></line><line transform="translate(0,100)" x2="600" y2="0" style="fill: none; stroke: #ddd; stroke-width: 1; opacity: 1;"></line><line transform="translate(0,67)" x2="600" y2="0" style="fill: none; stroke: #ddd; stroke-width: 1; opacity: 1;"></line><line transform="translate(0,33)" x2="600" y2="0" style="fill: none; stroke: #ddd; stroke-width: 1; opacity: 1;"></line><line transform="translate(0,0)" x2="600" y2="0" style="fill: none; stroke: #ddd; stroke-width: 1; opacity: 1;"></line></g></g></g></g><g class="mark-group role-scope pathgroup"><g transform="translate(0,0)"><path class="background" d="M0,0h600v300h-600Z" style="fill: none;"></path><g><g class="mark-line role-mark marks"><path d="M573.3333333333334,299.993L566.6666666666666,299.99016666666665L560,299.9861666666667L553.3333333333334,299.9805L546.6666666666666,299.9723333333333L540,299.9608333333333L533.3333333333333,299.94466666666665L526.6666666666666,299.92066666666665L520,299.885L513.3333333333333,299.8333333333333L506.6666666666667,299.76L500,299.6585L493.3333333333333,299.51683333333335L486.6666666666667,299.31516666666664L480,299.035L473.3333333333333,298.64816666666667L466.6666666666667,298.1068333333333L460.00000000000006,297.36L453.3333333333333,296.21666666666664L446.6666666666667,294.51666666666665L439.99999999999994,292.205L433.3333333333333,289.4L426.6666666666667,285.43333333333334L420,279.8L413.3333333333333,272.51666666666665L406.6666666666667,263.55L400,252.75L393.3333333333333,239.86666666666667L386.6666666666667,225.35L380,209.68333333333334L373.3333333333333,192.93333333333334L366.6666666666667,174.76666666666668L360,157.59166666666667L353.33333333333337,143.6L346.66666666666663,132.9L340,125.73333333333332L333.33333333333337,122.96666666666667L326.66666666666663,123.88333333333333L320,128.95000000000002L313.33333333333337,136.9L306.66666666666663,147.28333333333333L300,159.58333333333334L293.3333333333333,172.98333333333335L286.6666666666667,186.93333333333334L280,200.91666666666669L273.3333333333333,214.65833333333333L266.66666666666663,227.75833333333333L260,240.05L253.33333333333334,251.6L246.66666666666666,262.375L240,272.4166666666667L233.33333333333334,281.73333333333335L226.66666666666666,289.455L219.99999999999997,295.15L213.33333333333334,298.45L206.66666666666666,299.6L200,299.18333333333334L193.33333333333334,297.55L186.66666666666666,294.665L180,290.34166666666664L173.33333333333331,284.06L166.66666666666669,276.31666666666666L160,267.44L153.33333333333331,258.15L146.66666666666666,251.53333333333333L140,246.88333333333333L133.33333333333331,243.96666666666667L126.66666666666667,241.99L120,241.95333333333335L113.33333333333333,245.25L106.66666666666667,252.68333333333334L100,264.205L93.33333333333333,277.60333333333335L86.66666666666666,287.06166666666667L80,292.74833333333333L73.33333333333333,296.135L66.66666666666666,297.615L60,298.725L53.333333333333336,299.2928333333333L46.666666666666664,299.62733333333335L40,299.772" style="fill: none; stroke: Red; stroke-width: 2;"></path></g></g></g><g transform="translate(0,0)"><path class="background" d="M0,0h600v300h-600Z" style="fill: none;"></path><g><g class="mark-line role-mark marks"><path d="M573.3333333333334,299.9975L566.6666666666666,299.9965L560,299.995L553.3333333333334,299.993L546.6666666666666,299.99L540,299.98583333333335L533.3333333333333,299.98L526.6666666666666,299.97133333333335L520,299.9585L513.3333333333333,299.93983333333335L506.6666666666667,299.91333333333336L500,299.87666666666667L493.3333333333333,299.8255L486.6666666666667,299.75266666666664L480,299.6515L473.3333333333333,299.51183333333336L466.6666666666667,299.3163333333333L460.00000000000006,299.0461666666667L453.3333333333333,298.63166666666666L446.6666666666667,298.0133333333333L439.99999999999994,297.1666666666667L433.3333333333333,296.1333333333333L426.6666666666667,294.6666666666667L420,292.57L413.3333333333333,289.8333333333333L406.6666666666667,286.4L400,282.1666666666667L393.3333333333333,276.9666666666667L386.6666666666667,270.8333333333333L380,263.8333333333333L373.3333333333333,255.83333333333331L366.6666666666667,246.5L360,236.5L353.33333333333337,226.46666666666667L346.66666666666663,216.16666666666669L340,205.53333333333333L333.33333333333337,194.83333333333331L326.66666666666663,184.18333333333334L320,173.83333333333331L313.33333333333337,163.95L306.66666666666663,155L300,147.43333333333334L293.3333333333333,141.33333333333334L286.6666666666667,136.9L280,134.16666666666666L273.3333333333333,133.33333333333331L266.66666666666663,134.175L260,136.61666666666667L253.33333333333334,141.00000000000003L246.66666666666666,147.525L240,156.33333333333334L233.33333333333334,167.8L226.66666666666666,181.66666666666669L219.99999999999997,198.63333333333333L213.33333333333334,216.16666666666669L206.66666666666666,232.11666666666667L200,246.16666666666669L193.33333333333334,256.9L186.66666666666666,265.33L180,271.7833333333333L173.33333333333331,276.83L166.66666666666669,281.23333333333335L160,284.83666666666664L153.33333333333331,287.68333333333334L146.66666666666666,290L140,292L133.33333333333331,293.6666666666667L126.66666666666667,295.03333333333336L120,296.1666666666667L113.33333333333333,297.1933333333333L106.66666666666667,298.06666666666666L100,298.78333333333336L93.33333333333333,299.3333333333333L86.66666666666666,299.63666666666666L80,299.79833333333335L73.33333333333333,299.8933333333333L66.66666666666666,299.934L60,299.96383333333335L53.333333333333336,299.98L46.666666666666664,299.9893333333333L40,299.9935" style="fill: none; stroke: Green; stroke-width: 2;"></path></g></g></g><g transform="translate(0,0)"><path class="background" d="M0,0h600v300h-600Z" style="fill: none;"></path><g><g class="mark-line role-mark marks"><path d="M573.3333333333334,300L566.6666666666666,300L560,300L553.3333333333334,300L546.6666666666666,300L540,300L533.3333333333333,300L526.6666666666666,300L520,300L513.3333333333333,300L506.6666666666667,300L500,300L493.3333333333333,300L486.6666666666667,300L480,300L473.3333333333333,300L466.6666666666667,300L460.00000000000006,300L453.3333333333333,300L446.6666666666667,300L439.99999999999994,300L433.3333333333333,300L426.6666666666667,300L420,300L413.3333333333333,300L406.6666666666667,300L400,300L393.3333333333333,299.99833333333333L386.6666666666667,299.99666666666667L380,299.995L373.3333333333333,299.9916666666667L366.6666666666667,299.98333333333335L360,299.9683333333333L353.33333333333337,299.96L346.66666666666663,299.9433333333333L340,299.9L333.33333333333337,299.8666666666667L326.66666666666663,299.8333333333333L320,299.81666666666666L313.33333333333337,299.76666666666665L306.66666666666663,299.725L300,299.7L293.3333333333333,299.65L286.6666666666667,299.5416666666667L280,299.35L273.3333333333333,299.0416666666667L266.66666666666663,298.5416666666667L260,297.76666666666665L253.33333333333334,296.6166666666667L246.66666666666666,295.02666666666664L240,292.97333333333336L233.33333333333334,290.4583333333333L226.66666666666666,286.9583333333333L219.99999999999997,281.3833333333333L213.33333333333334,273.6333333333333L206.66666666666666,264.6166666666667L200,254.66666666666666L193.33333333333334,241.11666666666667L186.66666666666666,222.47000000000003L180,197.3L173.33333333333331,164.50833333333333L166.66666666666669,126.35L160,85.39333333333335L153.33333333333331,45.31666666666669L146.66666666666666,21.80000000000001L140,9.316666666666663L133.33333333333331,4.648333333333369L126.66666666666667,2.900000000000034L120,8.823333333333323L113.33333333333333,29.506666666666717L106.66666666666667,69.06666666666669L100,126.82499999999999L93.33333333333333,192.4L86.66666666666666,238.11666666666667L80,265.43333333333334L73.33333333333333,281.6333333333333L66.66666666666666,288.69166666666666L60,293.965L53.333333333333336,296.65833333333336L46.666666666666664,298.2416666666667L40,298.925" style="fill: none; stroke: Blue; stroke-width: 2;"></path></g></g></g></g><g class="mark-group role-legend"><g transform="translate(618,0)"><path class="background" d="M0,0h135v61h-135Z" style="pointer-events: none; fill: none;"></path><g><g class="mark-group role-legend-entry"><g transform="translate(0,16)"><path class="background" d="M0,0h0v0h0Z" style="pointer-events: none; fill: none;"></path><g><g class="mark-group role-scope"><g transform="translate(0,0)"><path class="background" d="M0,0h33.66015625v12.5h-33.66015625Z" style="pointer-events: none; fill: none; opacity: 1;"></path><g><g class="mark-symbol role-legend-symbol" style="pointer-events: none;"><path transform="translate(6,6)" d="M5,0A5,5,0,1,1,-5,0A5,5,0,1,1,5,0" style="fill: none; stroke: Red; stroke-width: 1.5; opacity: 1;"></path></g><g class="mark-text role-legend-label" style="pointer-events: none;"><text text-anchor="start" transform="translate(16,9)" style="font-family: sans-serif; font-size: 10px; fill: #000; opacity: 1;">x̄(λ)</text></g></g></g><g transform="translate(0,16)"><path class="background" d="M0,0h33.66015625v12.5h-33.66015625Z" style="pointer-events: none; fill: none; opacity: 1;"></path><g><g class="mark-symbol role-legend-symbol" style="pointer-events: none;"><path transform="translate(6,6)" d="M5,0A5,5,0,1,1,-5,0A5,5,0,1,1,5,0" style="fill: none; stroke: Green; stroke-width: 1.5; opacity: 1;"></path></g><g class="mark-text role-legend-label" style="pointer-events: none;"><text text-anchor="start" transform="translate(16,9)" style="font-family: sans-serif; font-size: 10px; fill: #000; opacity: 1;">ȳ(λ)</text></g></g></g><g transform="translate(0,32)"><path class="background" d="M0,0h33.66015625v12.5h-33.66015625Z" style="pointer-events: none; fill: none; opacity: 1;"></path><g><g class="mark-symbol role-legend-symbol" style="pointer-events: none;"><path transform="translate(6,6)" d="M5,0A5,5,0,1,1,-5,0A5,5,0,1,1,5,0" style="fill: none; stroke: Blue; stroke-width: 1.5; opacity: 1;"></path></g><g class="mark-text role-legend-label" style="pointer-events: none;"><text text-anchor="start" transform="translate(16,9)" style="font-family: sans-serif; font-size: 10px; fill: #000; opacity: 1;">z̄(λ)</text></g></g></g></g></g></g></g><g class="mark-text role-legend-title" style="pointer-events: none;"><text text-anchor="start" transform="translate(0,9)" style="font-family: sans-serif; font-size: 11px; font-weight: bold; fill: #000; opacity: 1;">Color matching functions</text></g></g></g></g><g class="mark-group role-axis"><g transform="translate(0.5,300.5)"><path class="background" d="M0,0h0v0h0Z" style="pointer-events: none; fill: none;"></path><g><g class="mark-rule role-axis-tick" style="pointer-events: none;"><line transform="translate(13,0)" x2="0" y2="5" style="fill: none; stroke: #888; stroke-width: 1; opacity: 1;"></line><line transform="translate(40,0)" x2="0" y2="5" style="fill: none; stroke: #888; stroke-width: 1; opacity: 1;"></line><line transform="translate(67,0)" x2="0" y2="5" style="fill: none; stroke: #888; stroke-width: 1; opacity: 1;"></line><line transform="translate(93,0)" x2="0" y2="5" style="fill: none; stroke: #888; stroke-width: 1; opacity: 1;"></line><line transform="translate(120,0)" x2="0" y2="5" style="fill: none; stroke: #888; stroke-width: 1; opacity: 1;"></line><line transform="translate(147,0)" x2="0" y2="5" style="fill: none; stroke: #888; stroke-width: 1; opacity: 1;"></line><line transform="translate(173,0)" x2="0" y2="5" style="fill: none; stroke: #888; stroke-width: 1; opacity: 1;"></line><line transform="translate(200,0)" x2="0" y2="5" style="fill: none; stroke: #888; stroke-width: 1; opacity: 1;"></line><line transform="translate(227,0)" x2="0" y2="5" style="fill: none; stroke: #888; stroke-width: 1; opacity: 1;"></line><line transform="translate(253,0)" x2="0" y2="5" style="fill: none; stroke: #888; stroke-width: 1; opacity: 1;"></line><line transform="translate(280,0)" x2="0" y2="5" style="fill: none; stroke: #888; stroke-width: 1; opacity: 1;"></line><line transform="translate(307,0)" x2="0" y2="5" style="fill: none; stroke: #888; stroke-width: 1; opacity: 1;"></line><line transform="translate(333,0)" x2="0" y2="5" style="fill: none; stroke: #888; stroke-width: 1; opacity: 1;"></line><line transform="translate(360,0)" x2="0" y2="5" style="fill: none; stroke: #888; stroke-width: 1; opacity: 1;"></line><line transform="translate(387,0)" x2="0" y2="5" style="fill: none; stroke: #888; stroke-width: 1; opacity: 1;"></line><line transform="translate(413,0)" x2="0" y2="5" style="fill: none; stroke: #888; stroke-width: 1; opacity: 1;"></line><line transform="translate(440,0)" x2="0" y2="5" style="fill: none; stroke: #888; stroke-width: 1; opacity: 1;"></line><line transform="translate(467,0)" x2="0" y2="5" style="fill: none; stroke: #888; stroke-width: 1; opacity: 1;"></line><line transform="translate(493,0)" x2="0" y2="5" style="fill: none; stroke: #888; stroke-width: 1; opacity: 1;"></line><line transform="translate(520,0)" x2="0" y2="5" style="fill: none; stroke: #888; stroke-width: 1; opacity: 1;"></line><line transform="translate(547,0)" x2="0" y2="5" style="fill: none; stroke: #888; stroke-width: 1; opacity: 1;"></line><line transform="translate(573,0)" x2="0" y2="5" style="fill: none; stroke: #888; stroke-width: 1; opacity: 1;"></line><line transform="translate(600,0)" x2="0" y2="5" style="fill: none; stroke: #888; stroke-width: 1; opacity: 1;"></line></g><g class="mark-text role-axis-label" style="pointer-events: none;"><text text-anchor="middle" transform="translate(13.333333333333334,15)" style="font-family: sans-serif; font-size: 10px; fill: #000; opacity: 1;">360</text><text text-anchor="middle" transform="translate(40,15)" style="font-family: sans-serif; font-size: 10px; fill: #000; opacity: 1;">380</text><text text-anchor="middle" transform="translate(66.66666666666666,15)" style="font-family: sans-serif; font-size: 10px; fill: #000; opacity: 1;">400</text><text text-anchor="middle" transform="translate(93.33333333333333,15)" style="font-family: sans-serif; font-size: 10px; fill: #000; opacity: 1;">420</text><text text-anchor="middle" transform="translate(120,15)" style="font-family: sans-serif; font-size: 10px; fill: #000; opacity: 1;">440</text><text text-anchor="middle" transform="translate(146.66666666666666,15)" style="font-family: sans-serif; font-size: 10px; fill: #000; opacity: 1;">460</text><text text-anchor="middle" transform="translate(173.33333333333331,15)" style="font-family: sans-serif; font-size: 10px; fill: #000; opacity: 1;">480</text><text text-anchor="middle" transform="translate(200,15)" style="font-family: sans-serif; font-size: 10px; fill: #000; opacity: 1;">500</text><text text-anchor="middle" transform="translate(226.66666666666666,15)" style="font-family: sans-serif; font-size: 10px; fill: #000; opacity: 1;">520</text><text text-anchor="middle" transform="translate(253.33333333333334,15)" style="font-family: sans-serif; font-size: 10px; fill: #000; opacity: 1;">540</text><text text-anchor="middle" transform="translate(280,15)" style="font-family: sans-serif; font-size: 10px; fill: #000; opacity: 1;">560</text><text text-anchor="middle" transform="translate(306.66666666666663,15)" style="font-family: sans-serif; font-size: 10px; fill: #000; opacity: 1;">580</text><text text-anchor="middle" transform="translate(333.33333333333337,15)" style="font-family: sans-serif; font-size: 10px; fill: #000; opacity: 1;">600</text><text text-anchor="middle" transform="translate(360,15)" style="font-family: sans-serif; font-size: 10px; fill: #000; opacity: 1;">620</text><text text-anchor="middle" transform="translate(386.6666666666667,15)" style="font-family: sans-serif; font-size: 10px; fill: #000; opacity: 1;">640</text><text text-anchor="middle" transform="translate(413.3333333333333,15)" style="font-family: sans-serif; font-size: 10px; fill: #000; opacity: 1;">660</text><text text-anchor="middle" transform="translate(439.99999999999994,15)" style="font-family: sans-serif; font-size: 10px; fill: #000; opacity: 1;">680</text><text text-anchor="middle" transform="translate(466.6666666666667,15)" style="font-family: sans-serif; font-size: 10px; fill: #000; opacity: 1;">700</text><text text-anchor="middle" transform="translate(493.3333333333333,15)" style="font-family: sans-serif; font-size: 10px; fill: #000; opacity: 1;">720</text><text text-anchor="middle" transform="translate(520,15)" style="font-family: sans-serif; font-size: 10px; fill: #000; opacity: 1;">740</text><text text-anchor="middle" transform="translate(546.6666666666666,15)" style="font-family: sans-serif; font-size: 10px; fill: #000; opacity: 1;">760</text><text text-anchor="middle" transform="translate(573.3333333333334,15)" style="font-family: sans-serif; font-size: 10px; fill: #000; opacity: 1;">780</text><text text-anchor="end" transform="translate(600,15)" style="font-family: sans-serif; font-size: 10px; fill: #000; opacity: 1;">800</text></g><g class="mark-rule role-axis-domain" style="pointer-events: none;"><line transform="translate(0,0)" x2="600" y2="0" style="fill: none; stroke: #888; stroke-width: 1; opacity: 1;"></line></g><g class="mark-text role-axis-title" style="pointer-events: none;"><text text-anchor="middle" transform="translate(300,31)" style="font-family: sans-serif; font-size: 11px; font-weight: bold; fill: #000; opacity: 1;">λ (nm)</text></g></g></g></g><g class="mark-group role-axis"><g transform="translate(0.5,0.5)"><path class="background" d="M0,0h0v0h0Z" style="pointer-events: none; fill: none;"></path><g><g class="mark-rule role-axis-tick" style="pointer-events: none;"><line transform="translate(0,300)" x2="-5" y2="0" style="fill: none; stroke: #888; stroke-width: 1; opacity: 1;"></line><line transform="translate(0,267)" x2="-5" y2="0" style="fill: none; stroke: #888; stroke-width: 1; opacity: 1;"></line><line transform="translate(0,233)" x2="-5" y2="0" style="fill: none; stroke: #888; stroke-width: 1; opacity: 1;"></line><line transform="translate(0,200)" x2="-5" y2="0" style="fill: none; stroke: #888; stroke-width: 1; opacity: 1;"></line><line transform="translate(0,167)" x2="-5" y2="0" style="fill: none; stroke: #888; stroke-width: 1; opacity: 1;"></line><line transform="translate(0,133)" x2="-5" y2="0" style="fill: none; stroke: #888; stroke-width: 1; opacity: 1;"></line><line transform="translate(0,100)" x2="-5" y2="0" style="fill: none; stroke: #888; stroke-width: 1; opacity: 1;"></line><line transform="translate(0,67)" x2="-5" y2="0" style="fill: none; stroke: #888; stroke-width: 1; opacity: 1;"></line><line transform="translate(0,33)" x2="-5" y2="0" style="fill: none; stroke: #888; stroke-width: 1; opacity: 1;"></line><line transform="translate(0,0)" x2="-5" y2="0" style="fill: none; stroke: #888; stroke-width: 1; opacity: 1;"></line></g><g class="mark-text role-axis-label" style="pointer-events: none;"><text text-anchor="end" transform="translate(-7,303)" style="font-family: sans-serif; font-size: 10px; fill: #000; opacity: 1;">0.0</text><text text-anchor="end" transform="translate(-7,269.6666666666667)" style="font-family: sans-serif; font-size: 10px; fill: #000; opacity: 1;">0.2</text><text text-anchor="end" transform="translate(-7,236.33333333333331)" style="font-family: sans-serif; font-size: 10px; fill: #000; opacity: 1;">0.4</text><text text-anchor="end" transform="translate(-7,203)" style="font-family: sans-serif; font-size: 10px; fill: #000; opacity: 1;">0.6</text><text text-anchor="end" transform="translate(-7,169.66666666666666)" style="font-family: sans-serif; font-size: 10px; fill: #000; opacity: 1;">0.8</text><text text-anchor="end" transform="translate(-7,136.33333333333331)" style="font-family: sans-serif; font-size: 10px; fill: #000; opacity: 1;">1.0</text><text text-anchor="end" transform="translate(-7,103)" style="font-family: sans-serif; font-size: 10px; fill: #000; opacity: 1;">1.2</text><text text-anchor="end" transform="translate(-7,69.66666666666669)" style="font-family: sans-serif; font-size: 10px; fill: #000; opacity: 1;">1.4</text><text text-anchor="end" transform="translate(-7,36.333333333333314)" style="font-family: sans-serif; font-size: 10px; fill: #000; opacity: 1;">1.6</text><text text-anchor="end" transform="translate(-7,3)" style="font-family: sans-serif; font-size: 10px; fill: #000; opacity: 1;">1.8</text></g><g class="mark-rule role-axis-domain" style="pointer-events: none;"><line transform="translate(0,300)" x2="0" y2="-300" style="fill: none; stroke: #888; stroke-width: 1; opacity: 1;"></line></g><g class="mark-text role-axis-title" style="pointer-events: none;"><text text-anchor="middle" transform="translate(-34,150) rotate(-90) translate(0,-2)" style="font-family: sans-serif; font-size: 11px; font-weight: bold; fill: #000; opacity: 1;">Response</text></g></g></g></g></g></g></g></g></svg>