<svg class="marks" width="738" height="351" viewBox="0 0 738 351" version="1.1" xmlns="http://www.w3.org/2000/svg" xmlns:xlink="http://www.w3.org/1999/xlink"><rect width="738" height="351" style="fill: white;"></rect><g transform="translate(52,11)"><g class="mark-group role-frame root"><g transform="translate(0,0)"><path class="background" d="M0.5,0.5h600v300h-600Z" style="fill: none; stroke: #ddd;"></path><g><g class="mark-group role-axis"><g transform="translate(0.5,300.5)"><path class="background" d="M0,0h0v0h0Z" style="pointer-events: none; fill: none;"></path><g><g class="mark-rule role-axis-grid" style="pointer-events: none;"><line transform="translate(0,-300)" x2="0" y2="300" style="fill: none; stroke: #ddd; stroke-width: 1; opacity: 1;"></line><line transform="translate(55,-300)" x2="0" y2="300" style="fill: none; stroke: #ddd; stroke-width: 1; opacity: 1;"></line><line transform="translate(109,-300)" x2="0" y2="300" style="fill: none; stroke: #ddd; stroke-width: 1; opacity: 1;"></line><line transform="translate(164,-300)" x2="0" y2="300" style="fill: none; stroke: #ddd; stroke-width: 1; opacity: 1;"></line><line transform="translate(218,-300)" x2="0" y2="300" style="fill: none; stroke: #ddd; stroke-width: 1; opacity: 1;"></line><line transform="translate(273,-300)" x2="0" y2="300" style="fill: none; stroke: #ddd; stroke-width: 1; opacity: 1;"></line><line transform="translate(327,-300)" x2="0" y2="300" style="fill: none; stroke: #ddd; stroke-width: 1; opacity: 1;"></line><line transform="translate(382,-300)" x2="0" y2="300" style="fill: none; stroke: #ddd; stroke-width: 1; opacity: 1;"></line><line transform="translate(436,-300)" x2="0" y2="300" style="fill: none; stroke: #ddd; stroke-width: 1; opacity: 1;"></line><line transform="translate(491,-300)" x2="0" y2="300" style="fill: none; stroke: #ddd; stroke-width: 1; opacity: 1;"></line><line transform="translate(545,-300)" x2="0" y2="300" style="fill: none; stroke: #ddd; stroke-width: 1; opacity: 1;"></line><line transform="translate(600,-300)" x2="0" y2="300" style="fill: none; stroke: #ddd; stroke-width: 1; opacity: 1;"></line></g></g></g></g><g class="mark-group role-axis"><g transform="translate(0.5,0.5)"><path class="background" d="M0,0h0v0h0Z" style="pointer-events: none; fill: none;"></path><g><g class="mark-rule role-axis-grid" style="pointer-events: none;"><line transform="translate(0,300)" x2="600" y2="0" style="fill: none; stroke: #ddd; stroke-width: 1; opacity: 1;"></line><line transform="translate(0,263)" x2="600" y2="0" style="fill: none; stroke: #ddd; stroke-width: 1; opacity: 1;"></line><line transform="translate(0,225)" x2="600" y2="0" style="fill: none; stroke: #ddd; stroke-width: 1; opacity: 1;"></line><line transform="translate(0,188)" x2="600" y2="0" style="fill: none; stroke: #ddd; stroke-width: 1; opacity: 1;"></line><line transform="translate(0,150)" x2="600" y2="0" style="fill: none; stroke: #ddd; stroke-width: 1; opacity: 1;"></line><line transform="translate(0,113)" x2="600" y2="0" style="fill: none; stroke: #ddd; stroke-width: 1; opacity: 1;"></line><line transform="translate(0,75)" x2="600" y2="0" style="fill: none; stroke: #ddd; stroke-width: 1; opacity: 1;"></line><line transform="translate(0,38)" x2="600" y2="0" style="fill: none; stroke: #ddd; stroke-width: 1; opacity: 1;"></line><line transform="translate(0,0)" x2="600" y2="0" style="fill: none; stroke: #ddd; stroke-width: 1; opacity: 1;"></line></g></g></g></g><g class="mark-group role-scope pathgroup"><g transform="translate(0,0)"><path class="background" d="M0,0h600v300h-600Z" style="fill: none;"></path><g><g class="mark-line role-mark marks"><path d="M578.1818181818181,146.43749999999997L572.7272727272727,149.24999999999997L567.2727272727273,152.0625L561.8181818181819,157.3125L556.3636363636364,162.5625L550.9090909090909,155.34375L545.4545454545454,148.125L540,143.4375L534.5454545454545,138.75L529.0909090909091,139.6875L523.6363636363636,140.625L518.1818181818182,137.25L512.7272727272727,133.875L507.27272727272725,153.46875L501.8181818181818,173.0625L496.3636363636364,156.65625L490.90909090909093,140.25L485.45454545454544,129.1875L480,118.125L474.54545454545456,123.09375000000003L469.0909090909091,128.0625L463.6363636363636,135.9375L458.1818181818182,143.8125L452.7272727272727,131.53125L447.2727272727273,119.25L441.8181818181818,121.21875L436.3636363636364,123.1875L430.9090909090909,125.43750000000003L425.45454545454544,127.68749999999997L420,118.875L414.54545454545456,110.06250000000003L409.09090909090907,106.68750000000003L403.6363636363636,103.3125L398.1818181818182,105.46875L392.72727272727275,107.625L387.2727272727273,108.28125L381.8181818181818,108.93749999999997L376.3636363636364,105.9375L370.9090909090909,102.9375L365.4545454545455,103.96875L360,105L354.54545454545456,100.87499999999997L349.09090909090907,96.75L343.6363636363636,94.96875000000003L338.1818181818182,93.1875L332.72727272727275,92.99999999999997L327.27272727272725,92.8125L321.8181818181818,94.125L316.3636363636363,95.4375L310.90909090909093,89.81250000000003L305.45454545454544,84.1875L300,83.34375L294.54545454545456,82.5L289.09090909090907,78.75L283.6363636363636,75L278.1818181818182,70.875L272.7272727272727,66.74999999999997L267.27272727272725,65.90625L261.8181818181818,65.0625L256.3636363636364,61.78125L250.9090909090909,58.49999999999997L245.45454545454547,60.65625L240,62.8125L234.54545454545456,58.78125L229.0909090909091,54.74999999999997L223.63636363636365,52.59375000000003L218.1818181818182,50.43750000000003L212.72727272727272,50.06249999999997L207.27272727272728,49.6875L201.8181818181818,42.375L196.36363636363637,35.0625L190.9090909090909,35.0625L185.45454545454544,35.0625L180,31.125L174.54545454545453,27.1875L169.0909090909091,27.09375L163.63636363636363,27L158.18181818181816,37.96875L152.72727272727272,48.9375L147.27272727272728,64.96875L141.8181818181818,81L136.36363636363635,72.46875L130.9090909090909,63.9375L125.45454545454545,64.96875L120,66L114.54545454545455,75.375L109.0909090909091,84.75L103.63636363636364,111.9375L98.18181818181819,139.125L92.72727272727272,141.37500000000003L87.27272727272727,143.625L81.81818181818181,138.5625L76.36363636363636,133.50000000000003L70.9090909090909,140.34375L65.45454545454545,147.1875L60,146.90624999999997L54.54545454545455,146.625L49.09090909090909,150.84375L43.63636363636363,155.0625L38.18181818181818,156.9375L32.72727272727273,158.8125L27.272727272727273,182.90625L21.818181818181817,207L16.363636363636363,229.125L10.909090909090908,251.25L5.454545454545454,256.8375L0,262.425" style="fill: none; stroke: Red; stroke-width: 2;"></path></g></g></g><g transform="translate(0,0)"><path class="background" d="M0,0h600v300h-600Z" style="fill: none;"></path><g><g class="mark-line role-mark marks"><path d="M578.1818181818181,280.875L572.7272727272727,280.40625L567.2727272727273,279.9375L561.8181818181819,279L556.3636363636364,278.0625L550.9090909090909,279.375L545.4545454545454,280.6875L540,281.53125L534.5454545454545,282.375L529.0909090909091,282.1875L523.6363636363636,282L518.1818181818182,282.75L512.7272727272727,283.5L507.27272727272725,280.3125L501.8181818181818,277.125L496.3636363636364,279.375L490.90909090909093,281.625L485.45454545454544,283.5L480,285.375L474.54545454545456,284.8125L469.0909090909091,284.25L463.6363636363636,283.3125L458.1818181818182,282.375L452.7272727272727,284.53125L447.2727272727273,286.6875L441.8181818181818,287.0625L436.3636363636364,287.4375L430.9090909090909,286.21875L425.45454545454544,285L420,286.5L414.54545454545456,288L409.09090909090907,288.375L403.6363636363636,288.75L398.1818181818182,286.875L392.72727272727275,285L387.2727272727273,283.78125L381.8181818181818,282.5625L376.3636363636364,282.75L370.9090909090909,282.9375L365.4545454545455,281.625L360,280.3125L354.54545454545456,279.46875L349.09090909090907,278.625L343.6363636363636,277.3125L338.1818181818182,276L332.72727272727275,274.6875L327.27272727272725,273.375L321.8181818181818,271.21875L316.3636363636363,269.0625L310.90909090909093,269.0625L305.45454545454544,269.0625L300,267.28125L294.54545454545456,265.5L289.09090909090907,264L283.6363636363636,262.5L278.1818181818182,260.71875L272.7272727272727,258.9375L267.27272727272725,256.78125L261.8181818181818,254.625L256.3636363636364,252.84375L250.9090909090909,251.0625L245.45454545454547,248.71875L240,246.375L234.54545454545456,242.0625L229.0909090909091,237.75L223.63636363636365,234.9375L218.1818181818182,232.125L212.72727272727272,228.46875L207.27272727272728,224.8125L201.8181818181818,220.875L196.36363636363637,216.9375L190.9090909090909,213.5625L185.45454545454544,210.1875L180,205.78125L174.54545454545453,201.375L169.0909090909091,198.28125L163.63636363636363,195.1875L158.18181818181816,194.4375L152.72727272727272,193.6875L147.27272727272728,193.3125L141.8181818181818,192.9375L136.36363636363635,186.5625L130.9090909090909,180.1875L125.45454545454545,177.9375L120,175.6875L114.54545454545455,178.40625L109.0909090909091,181.125L103.63636363636364,189L98.18181818181819,196.875L92.72727272727272,193.59375L87.27272727272727,190.3125L81.81818181818181,186.65625L76.36363636363636,183L70.9090909090909,187.125L65.45454545454545,191.25L60,187.875L54.54545454545455,184.5L49.09090909090909,185.4375L43.63636363636363,186.375L38.18181818181818,185.0625L32.72727272727273,183.75L27.272727272727273,202.125L21.818181818181817,220.5L16.363636363636363,237.28125L10.909090909090908,254.0625L5.454545454545454,258.2625L0,262.4625" style="fill: none; stroke: Green; stroke-width: 2;"></path></g></g></g><g transform="translate(0,0)"><path class="background" d="M0,0h600v300h-600Z" style="fill: none;"></path><g><g class="mark-line role-mark marks"><path d="M578.1818181818181,250.3125L572.7272727272727,250.6875L567.2727272727273,251.0625L561.8181818181819,251.625L556.3636363636364,252.1875L550.9090909090909,251.34375L545.4545454545454,250.5L540,249.9375L534.5454545454545,249.375L529.0909090909091,249.5625L523.6363636363636,249.75L518.1818181818182,249.1875L512.7272727272727,248.625L507.27272727272725,250.6875L501.8181818181818,252.75L496.3636363636364,251.34375L490.90909090909093,249.9375L485.45454545454544,248.71875L480,247.5L474.54545454545456,247.875L469.0909090909091,248.25L463.6363636363636,248.8125L458.1818181818182,249.375L452.7272727272727,247.96875L447.2727272727273,246.5625L441.8181818181818,245.53125L436.3636363636364,244.5L430.9090909090909,245.71875L425.45454545454544,246.9375L420,245.15625L414.54545454545456,243.375L409.09090909090907,243.75L403.6363636363636,244.125L398.1818181818182,245.25L392.72727272727275,246.375L387.2727272727273,247.59375L381.8181818181818,248.8125L376.3636363636364,249.375L370.9090909090909,249.9375L365.4545454545455,251.4375L360,252.9375L354.54545454545456,253.3125L349.09090909090907,253.6875L343.6363636363636,254.25L338.1818181818182,254.8125L332.72727272727275,255.65625L327.27272727272725,256.5L321.8181818181818,257.53125L316.3636363636363,258.5625L310.90909090909093,260.0625L305.45454545454544,261.5625L300,261.84375L294.54545454545456,262.125L289.09090909090907,262.3125L283.6363636363636,262.5L278.1818181818182,262.78125L272.7272727272727,263.0625L267.27272727272725,263.25L261.8181818181818,263.4375L256.3636363636364,263.90625L250.9090909090909,264.375L245.45454545454547,264.5625L240,264.75L234.54545454545456,264.84375L229.0909090909091,264.9375L223.63636363636365,265.125L218.1818181818182,265.3125L212.72727272727272,265.59375L207.27272727272728,265.875L201.8181818181818,266.625L196.36363636363637,267.375L190.9090909090909,267.375L185.45454545454544,267.375L180,267.5625L174.54545454545453,267.75L169.0909090909091,267.84375L163.63636363636363,267.9375L158.18181818181816,267.65625L152.72727272727272,267.375L147.27272727272728,266.0625L141.8181818181818,264.75L136.36363636363635,264.28125L130.9090909090909,263.8125L125.45454545454545,263.625L120,263.4375L114.54545454545455,264L109.0909090909091,264.5625L103.63636363636364,262.40625L98.18181818181819,260.25L92.72727272727272,258.5625L87.27272727272727,256.875L81.81818181818181,253.96875L76.36363636363636,251.0625L70.9090909090909,251.8125L65.45454545454545,252.5625L60,251.25L54.54545454545455,249.9375L49.09090909090909,248.90625L43.63636363636363,247.875L38.18181818181818,247.21875L32.72727272727273,246.5625L27.272727272727273,250.78125L21.818181818181817,255L16.363636363636363,256.875L10.909090909090908,258.75L5.454545454545454,260.625L0,262.5" style="fill: none; stroke: Blue; stroke-width: 2;"></path></g></g></g></g><g class="mark-group role-legend"><g transform="translate(618,0)"><path class="background" d="M0,0h63v61h-63Z" style="pointer-events: none; fill: none;"></path><g><g class="mark-group role-legend-entry"><g transform="translate(0,16)"><path class="background" d="M0,0h0v0h0Z" style="pointer-events: none; fill: none;"></path><g><g class="mark-group role-scope"><g transform="translate(0,0)"><path class="background" d="M0,0h29.2314453125v12.5h-29.2314453125Z" style="pointer-events: none; fill: none; opacity: 1;"></path><g><g class="mark-symbol role-legend-symbol" style="pointer-events: none;"><path transform="translate(6,6)" d="M5,0A5,5,0,1,1,-5,0A5,5,0,1,1,5,0" style="fill: none; stroke: Red; stroke-width: 1.5; opacity: 1;"></path></g><g class="mark-text role-legend-label" style="pointer-events: none;"><text text-anchor="start" transform="translate(16,9)" style="font-family: sans-serif; font-size: 10px; fill: #000; opacity: 1;">S0</text></g></g></g><g transform="translate(0,16)"><path class="background" d="M0,0h29.2314453125v12.5h-29.2314453125Z" style="pointer-events: none; fill: none; opacity: 1;"></path><g><g class="mark-symbol role-legend-symbol" style="pointer-events: none;"><path transform="translate(6,6)" d="M5,0A5,5,0,1,1,-5,0A5,5,0,1,1,5,0" style="fill: none; stroke: Green; stroke-width: 1.5; opacity: 1;"></path></g><g class="mark-text role-legend-label" style="pointer-events: none;"><text text-anchor="start" transform="translate(16,9)" style="font-family: sans-serif; font-size: 10px; fill: #000; opacity: 1;">S1</text></g></g></g><g transform="translate(0,32)"><path class="background" d="M0,0h29.2314453125v12.5h-29.2314453125Z" style="pointer-events: none; fill: none; opacity: 1;"></path><g><g class="mark-symbol role-legend-symbol" style="pointer-events: none;"><path transform="translate(6,6)" d="M5,0A5,5,0,1,1,-5,0A5,5,0,1,1,5,0" style="fill: none; stroke: Blue; stroke-width: 1.5; opacity: 1;"></path></g><g class="mark-text role-legend-label" style="pointer-events: none;"><text text-anchor="start" transform="translate(16,9)" style="font-family: sans-serif; font-size: 10px; fill: #000; opacity: 1;">S2</text></g></g></g></g></g></g></g><g class="mark-text role-legend-title" style="pointer-events: none;"><text text-anchor="start" transform="translate(0,9)" style="font-family: sans-serif; font-size: 11px; font-weight: bold; fill: #000; opacity: 1;">Component</text></g></g></g></g><g class="mark-group role-axis"><g transform="translate(0.5,300.5)"><path class="background" d="M0,0h0v0h0Z" style="pointer-events: none; fill: none;"></path><g><g class="mark-rule role-axis-tick" style="pointer-events: none;"><line transform="translate(0,0)" x2="0" y2="5" style="fill: none; stroke: #888; stroke-width: 1; opacity: 1;"></line><line transform="translate(55,0)" x2="0" y2="5" style="fill: none; stroke: #888; stroke-width: 1; opacity: 1;"></line><line transform="translate(109,0)" x2="0" y2="5" style="fill: none; stroke: #888; stroke-width: 1; opacity: 1;"></line><line transform="translate(164,0)" x2="0" y2="5" style="fill: none; stroke: #888; stroke-width: 1; opacity: 1;"></line><line transform="translate(218,0)" x2="0" y2="5" style="fill: none; stroke: #888; stroke-width: 1; opacity: 1;"></line><line transform="translate(273,0)" x2="0" y2="5" style="fill: none; stroke: #888; stroke-width: 1; opacity: 1;"></line><line transform="translate(327,0)" x2="0" y2="5" style="fill: none; stroke: #888; stroke-width: 1; opacity: 1;"></line><line transform="translate(382,0)" x2="0" y2="5" style="fill: none; stroke: #888; stroke-width: 1; opacity: 1;"></line><line transform="translate(436,0)" x2="0" y2="5" style="fill: none; stroke: #888; stroke-width: 1; opacity: 1;"></line><line transform="translate(491,0)" x2="0" y2="5" style="fill: none; stroke: #888; stroke-width: 1; opacity: 1;"></line><line transform="translate(545,0)" x2="0" y2="5" style="fill: none; stroke: #888; stroke-width: 1; opacity: 1;"></line><line transform="translate(600,0)" x2="0" y2="5" style="fill: none; stroke: #888; stroke-width: 1; opacity: 1;"></line></g><g class="mark-text role-axis-label" style="pointer-events: none;"><text text-anchor="start" transform="translate(0,15)" style="font-family: sans-serif; font-size: 10px; fill: #000; opacity: 1;">300</text><text text-anchor="middle" transform="translate(54.54545454545455,15)" style="font-family: sans-serif; font-size: 10px; fill: #000; opacity: 1;">350</text><text text-anchor="middle" transform="translate(109.0909090909091,15)" style="font-family: sans-serif; font-size: 10px; fill: #000; opacity: 1;">400</text><text text-anchor="middle" transform="translate(163.63636363636363,15)" style="font-family: sans-serif; font-size: 10px; fill: #000; opacity: 1;">450</text><text text-anchor="middle" transform="translate(218.1818181818182,15)" style="font-family: sans-serif; font-size: 10px; fill: #000; opacity: 1;">500</text><text text-anchor="middle" transform="translate(272.7272727272727,15)" style="font-family: sans-serif; font-size: 10px; fill: #000; opacity: 1;">550</text><text text-anchor="middle" transform="translate(327.27272727272725,15)" style="font-family: sans-serif; font-size: 10px; fill: #000; opacity: 1;">600</text><text text-anchor="middle" transform="translate(381.8181818181818,15)" style="font-family: sans-serif; font-size: 10px; fill: #000; opacity: 1;">650</text><text text-anchor="middle" transform="translate(436.3636363636364,15)" style="font-family: sans-serif; font-size: 10px; fill: #000; opacity: 1;">700</text><text text-anchor="middle" transform="translate(490.90909090909093,15)" style="font-family: sans-serif; font-size: 10px; fill: #000; opacity: 1;">750</text><text text-anchor="middle" transform="translate(545.4545454545454,15)" style="font-family: sans-serif; font-size: 10px; fill: #000; opacity: 1;">800</text><text text-anchor="end" transform="translate(600,15)" style="font-family: sans-serif; font-size: 10px; fill: #000; opacity: 1;">850</text></g><g class="mark-rule role-axis-domain" style="pointer-events: none;"><line transform="translate(0,0)" x2="600" y2="0" style="fill: none; stroke: #888; stroke-width: 1; opacity: 1;"></line></g><g class="mark-text role-axis-title" style="pointer-events: none;"><text text-anchor="middle" transform="translate(300,31)" style="font-family: sans-serif; font-size: 11px; font-weight: bold; fill: #000; opacity: 1;">Wavelength</text></g></g></g></g><g class="mark-group role-axis"><g transform="translate(0.5,0.5)"><path class="background" d="M0,0h0v0h0Z" style="pointer-events: none; fill: none;"></path><g><g class="mark-rule role-axis-tick" style="pointer-events: none;"><line transform="translate(0,300)" x2="-5" y2="0" style="fill: none; stroke: #888; stroke-width: 1; opacity: 1;"></line><line transform="translate(0,263)" x2="-5" y2="0" style="fill: none; stroke: #888; stroke-width: 1; opacity: 1;"></line><line transform="translate(0,225)" x2="-5" y2="0" style="fill: none; stroke: #888; stroke-width: 1; opacity: 1;"></line><line transform="translate(0,188)" x2="-5" y2="0" style="fill: none; stroke: #888; stroke-width: 1; opacity: 1;"></line><line transform="translate(0,150)" x2="-5" y2="0" style="fill: none; stroke: #888; stroke-width: 1; opacity: 1;"></line><line transform="translate(0,113)" x2="-5" y2="0" style="fill: none; stroke: #888; stroke-width: 1; opacity: 1;"></line><line transform="translate(0,75)" x2="-5" y2="0" style="fill: none; stroke: #888; stroke-width: 1; opacity: 1;"></line><line transform="translate(0,38)" x2="-5" y2="0" style="fill: none; stroke: #888; stroke-width: 1; opacity: 1;"></line><line transform="translate(0,0)" x2="-5" y2="0" style="fill: none; stroke: #888; stroke-width: 1; opacity: 1;"></line></g><g class="mark-text role-axis-label" style="pointer-events: none;"><text text-anchor="end" transform="translate(-7,303)" style="font-family: sans-serif; font-size: 10px; fill: #000; opacity: 1;">-20</text><text text-anchor="end" transform="translate(-7,265.5)" style="font-family: sans-serif; font-size: 10px; fill: #000; opacity: 1;">0</text><text text-anchor="end" transform="translate(-7,228)" style="font-family: sans-serif; font-size: 10px; fill: #000; opacity: 1;">20</text><text text-anchor="end" transform="translate(-7,190.5)" style="font-family: sans-serif; font-size: 10px; fill: #000; opacity: 1;">40</text><text text-anchor="end" transform="translate(-7,153)" style="font-family: sans-serif; font-size: 10px; fill: #000; opacity: 1;">60</text><text text-anchor="end" transform="translate(-7,115.5)" style="font-family: sans-serif; font-size: 10px; fill: #000; opacity: 1;">80</text><text text-anchor="end" transform="translate(-7,78)" style="font-family: sans-serif; font-size: 10px; fill: #000; opacity: 1;">100</text><text text-anchor="end" transform="translate(-7,40.5)" style="font-family: sans-serif; font-size: 10px; fill: #000; opacity: 1;">120</text><text text-anchor="end" transform="translate(-7,3)" style="font-family: sans-serif; font-size: 10px; fill: #000; opacity: 1;">140</text></g><g class="mark-rule role-axis-domain" style="pointer-events: none;"><line transform="translate(0,300)" x2="0" y2="-300" style="fill: none; stroke: #888; stroke-width: 1; opacity: 1;"></line></g><g class="mark-text role-axis-title" style="pointer-events: none;"><text text-anchor="middle" transform="translate(-34,150) rotate(-90) translate(0,-2)" style="font-family: sans-serif; font-size: 11px; font-weight: bold; fill: #000; opacity: 1;">SPDs</text></g></g></g></g></g></g></g></g></svg>